<svg width="23" height="25" viewBox="0 0 23 25" fill="none" xmlns="http://www.w3.org/2000/svg">
<g filter="url(#filter0_d_39_15)">
<path d="M10.7034 8.03399L4.33037 2.55856C3.88988 2.18011 3.88988 1.56815 4.33037 1.19373L5.38941 0.283841C5.8299 -0.0946074 6.54217 -0.0946074 6.97798 0.283841L11.4953 4.16495L16.0127 0.283841C16.4531 -0.0946074 17.1654 -0.0946074 17.6012 0.283841L18.6696 1.1897C19.1101 1.56815 19.1101 2.18011 18.6696 2.55453L12.2966 8.02996C11.8561 8.41244 11.1439 8.41244 10.7034 8.03399ZM12.2966 15.764L18.6696 10.2886C19.1101 9.91013 19.1101 9.29817 18.6696 8.92374L17.6106 8.01386C17.1701 7.63541 16.4578 7.63541 16.022 8.01386L11.5 11.8909L6.98266 8.00983C6.54217 7.63138 5.8299 7.63138 5.3941 8.00983L4.33037 8.91972C3.88988 9.29817 3.88988 9.91013 4.33037 10.2845L10.7034 15.76C11.1439 16.1425 11.8561 16.1425 12.2966 15.764Z" fill="white"/>
</g>
<defs>
<filter id="filter0_d_39_15" x="0" y="0" width="23" height="24.0473" filterUnits="userSpaceOnUse" color-interpolation-filters="sRGB">
<feFlood flood-opacity="0" result="BackgroundImageFix"/>
<feColorMatrix in="SourceAlpha" type="matrix" values="0 0 0 0 0 0 0 0 0 0 0 0 0 0 0 0 0 0 127 0" result="hardAlpha"/>
<feOffset dy="4"/>
<feGaussianBlur stdDeviation="2"/>
<feComposite in2="hardAlpha" operator="out"/>
<feColorMatrix type="matrix" values="0 0 0 0 0 0 0 0 0 0 0 0 0 0 0 0 0 0 0.25 0"/>
<feBlend mode="normal" in2="BackgroundImageFix" result="effect1_dropShadow_39_15"/>
<feBlend mode="normal" in="SourceGraphic" in2="effect1_dropShadow_39_15" result="shape"/>
</filter>
</defs>
</svg>
