<svg width="364" height="366" viewBox="0 0 364 366" fill="none" xmlns="http://www.w3.org/2000/svg">
<path d="M59.5 316.5C36.3 297.3 19.5 266.833 14 254L169.5 170.5L212 226.5L359 147C362.5 156.5 364 185.5 361.5 207C359 228.5 353 264.5 322.5 298.5C292 332.5 254.5 353.5 221.5 361C188.5 368.5 149 366 119 353.5C89.2083 341.087 88.5084 340.508 60.1 316.997L59.5 316.5Z" fill="white" stroke="black"/>
<path d="M48.6549 57.5961C-8.94514 112.796 -3.67847 198.263 6.15486 234.096L171.655 144.596L215.155 200.096L351.655 126.596C354.322 121.429 350.355 100.396 313.155 57.5961C275.955 14.7961 218.655 2.09606 194.655 1.09606C169.988 -3.0706 106.255 2.39606 48.6549 57.5961Z" fill="white"/>
</svg>
